<svg xmlns="http://www.w3.org/2000/svg" version="1.2" overflow="visible" preserveAspectRatio="none" viewBox="0 0 24 24" width="24" height="24"><g><path xmlns:default="http://www.w3.org/2000/svg" id="plus-square" d="M17.33,12.67c-0.01,0.37-0.3,0.66-0.67,0.67h-3.33v3.33c-0.01,0.37-0.3,0.66-0.67,0.67h-1.33  c-0.37-0.01-0.66-0.3-0.67-0.67v-3.34H7.34c-0.37-0.01-0.66-0.3-0.67-0.67v-1.33c0.01-0.37,0.3-0.66,0.67-0.67h3.33V7.34  c0.01-0.37,0.3-0.66,0.67-0.67h1.33c0.37,0.01,0.66,0.3,0.67,0.67v3.33h3.33c0.37,0.01,0.66,0.3,0.67,0.67v1.33l0,0H17.33z   M19.12,4.89C18.57,4.31,17.8,3.99,17,4H7C5.34,4,4,5.34,4,7v10c0,1.66,1.34,3,3,3h10c1.66,0,3-1.34,3-3V7  C20.01,6.2,19.69,5.43,19.12,4.89L19.12,4.89z" style="fill: rgb(214, 215, 217);" vector-effect="non-scaling-stroke"/></g></svg>