<svg version="1.2" xmlns="http://www.w3.org/2000/svg" xmlns:xlink="http://www.w3.org/1999/xlink" overflow="visible" preserveAspectRatio="none" viewBox="0 0 24 24" width="16" height="16"><g><defs> </defs> <rect display="none" fill="#FFA400" width="24" height="24" style="fill: rgb(17, 46, 81);" vector-effect="non-scaling-stroke"/> <rect id="_x3C_Slice_x3E__109_" display="none" fill="none" width="24" height="24" style="fill: rgb(17, 46, 81);" vector-effect="non-scaling-stroke"/> <path fill-rule="evenodd" clip-rule="evenodd" d="M16,1v4H6c-3.313,0-6,2.687-6,6c0,1.008,0.272,1.943,0.712,2.777l2.475-1.768 C3.073,11.693,3,11.356,3,11c0-1.657,1.344-3,3-3h10v4l8-5V6L16,1z M20.813,11.99C20.928,12.307,21,12.644,21,13 c0,1.657-1.343,3-3,3H8v-4l-8,5v1l8,5v-4h10c3.313,0,6-2.686,6-6c0-1.008-0.272-1.943-0.711-2.777L20.813,11.99z" style="fill: rgb(17, 46, 81);" vector-effect="non-scaling-stroke"/> </g></svg>