<svg xmlns="http://www.w3.org/2000/svg" viewBox="0 0 153.19 44.12"><defs><style>.cls-1{fill:#0b223f;}</style></defs><title>Asset 1</title><g id="Layer_2" data-name="Layer 2"><g id="Layer_1-2" data-name="Layer 1"><path class="cls-1" d="M75.39,18.43H89.84V37.3a41.59,41.59,0,0,1-6.61,1.61,44.11,44.11,0,0,1-6.34.46q-8.25,0-12.59-4.85T60,20.62q0-8.82,5-13.75T79,1.94A27.16,27.16,0,0,1,89.79,4.18l-2.57,6.18a18.28,18.28,0,0,0-8.29-2,10.25,10.25,0,0,0-8,3.37q-3,3.36-3,9c0,3.95.81,7,2.43,9.05a8.39,8.39,0,0,0,7.06,3.12,25.05,25.05,0,0,0,4.9-.49v-7.6h-6.9Z"/><path class="cls-1" d="M119.47,38.87h-21V2.46h21V8.79H106.22v8h12.33v6.33H106.22V32.5h13.25Z"/><path class="cls-1" d="M142.53,8.36a7.89,7.89,0,0,0-6.75,3.28c-1.59,2.18-2.39,5.23-2.39,9.13q0,12.17,9.14,12.17A28.82,28.82,0,0,0,151.82,31V37.5a25.73,25.73,0,0,1-10,1.87q-8,0-12.15-4.82t-4.21-13.83a22.7,22.7,0,0,1,2.06-9.95,15,15,0,0,1,5.94-6.55,17.59,17.59,0,0,1,9.08-2.28,24.5,24.5,0,0,1,10.66,2.57l-2.49,6.27a40,40,0,0,0-4.11-1.69A12.32,12.32,0,0,0,142.53,8.36Z"/><polygon class="cls-1" points="13.38 0 20.88 12.44 31.02 12.44 38.35 0 13.38 0"/><polygon class="cls-1" points="38.35 44.12 30.85 31.68 20.71 31.68 13.38 44.12 38.35 44.12"/><polygon class="cls-1" points="39.49 0.68 51.89 21.53 37.22 21.53 32.1 13.13 39.49 0.68"/><polygon class="cls-1" points="12.4 43.46 0 22.61 14.68 22.61 19.79 31.02 12.4 43.46"/><polygon class="cls-1" points="37.1 22.61 32.1 31.19 39.43 43.46 51.89 22.61 37.1 22.61"/><polygon class="cls-1" points="14.79 21.53 19.79 12.95 12.46 0.68 0 21.53 14.79 21.53"/><path class="cls-1" d="M33,21.69a7,7,0,0,0-2.21-4.78h0a7.37,7.37,0,0,0-1.72-1.2h0a7.17,7.17,0,0,0-.69-.3l-.18-.06-.3-.1-.5-.13A8,8,0,0,0,26.32,15h-.74a8.16,8.16,0,0,0-1.12.14l-.5.13-.29.1-.19.06c-.23.09-.47.19-.69.3h0a7.16,7.16,0,0,0-2.23,1.74h0a7.06,7.06,0,0,0-1.7,4.25h0v.74h0a7,7,0,0,0,1.7,4.25h0a6.51,6.51,0,0,0,.51.54h0a7.37,7.37,0,0,0,1.72,1.2h0q.34.16.69.3l.18.06.3.1.5.13a6.86,6.86,0,0,0,1.12.14v0h.74v0A6.88,6.88,0,0,0,27.43,29l.5-.13.3-.1.18-.06a7.17,7.17,0,0,0,.69-.3h0a7.16,7.16,0,0,0,2.23-1.74h0A7,7,0,0,0,33,22.43h0v-.74Zm-7.45,5.8a6.33,6.33,0,0,1-2.08-2.07A6.31,6.31,0,0,1,25.58,25ZM26.32,25a6.19,6.19,0,0,1,2.07.47,6.27,6.27,0,0,1-2.07,2.06Zm-.74-5.78a6.31,6.31,0,0,1-2.08-.47,6.4,6.4,0,0,1,2.08-2.06Zm.74-2.53a6.47,6.47,0,0,1,2.07,2.06,6.19,6.19,0,0,1-2.07.47Zm0,3.27a7.12,7.12,0,0,0,2.43-.55,6.46,6.46,0,0,1,.6,2.33h-3Zm.46-3.85c.21-.07.43-.13.65-.18a6.29,6.29,0,0,1,2.88,1.56,6.46,6.46,0,0,1-1.26.94A7.09,7.09,0,0,0,26.78,16.06Zm-1.67,0a7.09,7.09,0,0,0-2.27,2.32,6.46,6.46,0,0,1-1.26-.94,6.34,6.34,0,0,1,2.88-1.56C24.68,15.93,24.9,16,25.11,16.06Zm-2,3.3a7,7,0,0,0,2.43.55v1.78h-3A6.08,6.08,0,0,1,23.15,19.36Zm2.43,3.07v1.78a6.8,6.8,0,0,0-2.43.56,6.17,6.17,0,0,1-.59-2.34Zm-.47,5.63-.65.19a6.45,6.45,0,0,1-2.88-1.57,6,6,0,0,1,1.26-.93A7.15,7.15,0,0,0,25.11,28.06Zm1.67,0a7.15,7.15,0,0,0,2.27-2.31,6,6,0,0,1,1.26.93,6.4,6.4,0,0,1-2.88,1.57Zm2-3.29a6.9,6.9,0,0,0-2.43-.56V22.43h3A6.56,6.56,0,0,1,28.75,24.77Zm1.34-3.08A7.16,7.16,0,0,0,29.41,19,6.94,6.94,0,0,0,30.82,18a6.3,6.3,0,0,1,1.47,3.72Zm-9-3.72A7,7,0,0,0,22.49,19a7,7,0,0,0-.68,2.66H19.6A6.37,6.37,0,0,1,21.07,18Zm.74,4.46a7.07,7.07,0,0,0,.68,2.67,7,7,0,0,0-1.42,1,6.37,6.37,0,0,1-1.47-3.72Zm9,3.72a6.9,6.9,0,0,0-1.41-1,7.26,7.26,0,0,0,.68-2.67h2.2A6.3,6.3,0,0,1,30.82,26.15Z"/></g></g></svg>