<svg version="1.1" xmlns="http://www.w3.org/2000/svg" width="33" height="42" viewBox="0 0 33 42" role="img" aria-labelledby="title"><title id="title">cross close</title><path fill="#0a181d" d="M30.422 30.984c0 0.586-0.234 1.172-0.656 1.594l-3.187 3.187c-0.422 0.422-1.008 0.656-1.594 0.656s-1.172-0.234-1.594-0.656l-6.891-6.891-6.891 6.891c-0.422 0.422-1.008 0.656-1.594 0.656s-1.172-0.234-1.594-0.656l-3.187-3.187c-0.422-0.422-0.656-1.008-0.656-1.594s0.234-1.172 0.656-1.594l6.891-6.891-6.891-6.891c-0.422-0.422-0.656-1.008-0.656-1.594s0.234-1.172 0.656-1.594l3.187-3.187c0.422-0.422 1.008-0.656 1.594-0.656s1.172 0.234 1.594 0.656l6.891 6.891 6.891-6.891c0.422-0.422 1.008-0.656 1.594-0.656s1.172 0.234 1.594 0.656l3.187 3.187c0.422 0.422 0.656 1.008 0.656 1.594s-0.234 1.172-0.656 1.594l-6.891 6.891 6.891 6.891c0.422 0.422 0.656 1.008 0.656 1.594z"></path></svg>
