<svg version="1.1" id="Layer_1" xmlns="http://www.w3.org/2000/svg" x="0" y="0" viewBox="0 0 1920 1080" xml:space="preserve"><style>.st2{display:inline}.st3{fill:#96b5df}</style><path fill="#05314d" d="M0 0h1920v1080H0z"/><path fill="none" d="M232.74 670.92h1454.53v237.3H232.74z"/><text transform="translate(597.507 812.12)" font-size="200" font-family="SourceSansPro-SemiBold" fill="#fff">Package</text><g stroke="#fff" stroke-width="10" stroke-miterlimit="10"><path d="M1031.81 474.75H820.77c-15.31 0-27.71-12.41-27.71-27.71v-199.7c0-15.31 12.41-27.71 27.71-27.71h211.04c15.31 0 27.71 12.41 27.71 27.71v199.69c0 15.31-12.41 27.72-27.71 27.72z" fill="none"/><path d="M1099.23 546.84H888.19c-15.31 0-27.71-12.41-27.71-27.71v-199.7c0-15.31 12.41-27.71 27.71-27.71h211.04c15.31 0 27.71 12.41 27.71 27.71v199.69c.01 15.31-12.4 27.72-27.71 27.72z" fill="#05314d"/></g></svg>